<svg width="367" height="192" viewBox="0 0 367 192" fill="none" xmlns="http://www.w3.org/2000/svg">
<path d="M365 75.5081H344.5C343.395 75.5081 342.524 74.5981 342.315 73.5135C340.19 62.4978 320.5 62.7393 320.5 75.5081C320.5 81.511 331.814 82.4336 342.5 83.5081C360.5 85.3181 367 94.011 367 106.508C367 128.511 348 134.892 342.5 136.508C334 139.006 326 139.506 316.5 136.508C303.731 132.479 292.064 122.898 291.069 108.51C290.992 107.408 291.895 106.508 293 106.508H314.5C315.605 106.508 316.478 107.422 316.658 108.511C318.821 121.63 342.5 117.486 342.5 106.508C342.5 100.011 332.5 98.0081 319 98.0081C306 98.0081 294 88.5081 294 75.5081C294 60.011 307.5 49.3484 319 45.5081C325 43.5045 332.5 43.5058 342.5 45.5081C352.066 47.4236 365.75 58.946 366.92 73.5084C367.008 74.6095 366.105 75.5081 365 75.5081Z" fill="white"/>
<path d="M113.175 52.5849C98.3585 38.0352 73.2074 38.679 54.4993 54.5142C37.9993 68.4803 33.9993 99.5078 54.4993 122.508C68.4182 138.124 95.2373 140.347 111.075 125.025C111.749 124.373 112.933 124.857 112.893 125.794C112.524 134.403 111.86 139.007 108.999 142.514C97.6751 153.833 80.5329 156.435 66.6438 143.145C66.2756 142.792 65.6983 142.755 65.3004 143.073L49.3718 155.816C48.9064 156.189 48.8738 156.889 49.3018 157.304C79.2749 186.345 124.508 179.153 138.446 138.166C138.481 138.063 138.499 137.952 138.499 137.844V47.0142C138.499 46.4619 138.052 46.0142 137.499 46.0142H115.999C115.447 46.0142 114.999 46.4619 114.999 47.0142V51.8606C114.999 52.783 113.833 53.2312 113.175 52.5849Z" fill="white"/>
<circle cx="86" cy="89.0078" r="23.5" fill="black"/>
<path d="M29.5 44.5137H6C5.44772 44.5137 5 44.9614 5 45.5137V132.514C5 133.066 5.44772 133.514 6 133.514H29.5C30.0523 133.514 30.5 133.066 30.5 132.514V45.5137C30.5 44.9614 30.0523 44.5137 29.5 44.5137Z" fill="white"/>
<path d="M174 45.4965L151.001 45.5076V131.996C151.001 132.548 151.449 132.996 152.001 132.996H175.501C176.053 132.996 176.501 132.539 176.501 131.987C176.509 112.044 176.507 104.369 176.501 84.0078C176.494 61.5078 218.001 60.5078 218.001 84.0078V131.996C218.001 132.548 218.449 132.996 219.001 132.996H243.026C243.568 132.996 244.012 132.549 244.026 132.007C245.224 85.4352 245.675 66.9273 233.001 55.496C213.383 37.8025 191.017 37.9577 176.859 53.331C176.219 54.0262 175.001 53.5918 175.001 52.6467V46.4965C175.001 45.944 174.553 45.4962 174 45.4965Z" fill="white"/>
<path d="M282 43.5078H258.5C257.948 43.5078 257.5 43.9555 257.5 44.5078V131.508C257.5 132.06 257.948 132.508 258.5 132.508H282C282.552 132.508 283 132.06 283 131.508V44.5078C283 43.9555 282.552 43.5078 282 43.5078Z" fill="white"/>
<circle cx="270.5" cy="23.502" r="13.5" fill="white"/>
<path d="M275.002 145.002V167.002M275.002 190.002V179.502M275.002 179.502C281.002 190.002 300.158 190.002 303.002 177.002C306.502 161.002 288.002 154.502 275.002 167.002M275.002 179.502V167.002" stroke="white" stroke-width="5"/>
<path d="M191.002 161.002V192.002" stroke="white" stroke-width="6"/>
<path d="M153 165.993C153 158.002 174.5 159.001 174.5 165.993V174.493M174.502 191.502L174.5 181.002M174.5 181.002C168 191.002 151.016 192.502 151 182.993C150.988 176.002 159.502 171.002 174.5 174.493M174.5 181.002V174.493" stroke="white" stroke-width="5"/>
<path d="M237.002 166.127C237.002 158.136 258.502 159.135 258.502 166.127V174.627M258.504 191.636L258.502 181.136M258.502 181.136C252.002 191.136 235.018 192.636 235.002 183.127C234.99 176.136 243.504 171.136 258.502 174.627M258.502 181.136V174.627" stroke="white" stroke-width="5"/>
<path d="M221.502 147.502V190.502" stroke="white" stroke-width="6"/>
<path d="M335.514 165.5C335.514 159.997 315.527 157.499 315.514 166.999C315.508 171.002 317.002 174.002 331.005 175.998C338.449 177.059 338.282 185.068 333.008 187.498C327.734 189.929 315.002 190.502 315.002 184.002" stroke="white" stroke-width="5"/>
<circle cx="191.002" cy="154.502" r="3" fill="white"/>
<path d="M16.7265 0.39316C16.3487 0.649364 16.0564 1.01303 15.8874 1.43714L14.7489 4.18666C12.8357 8.84197 9.21035 12.5865 4.61933 14.6492L1.38831 16.0893C0.973936 16.2799 0.622916 16.5853 0.376851 16.9693C0.130787 17.3534 0 17.7999 0 18.256C0 18.7121 0.130787 19.1587 0.376851 19.5427C0.622916 19.9268 0.973936 20.2322 1.38831 20.4228L4.80833 21.9438C9.28671 23.9525 12.8496 27.5667 14.7939 32.0734L15.9054 34.6159C16.0784 35.0307 16.3703 35.3849 16.7442 35.6341C17.1182 35.8833 17.5576 36.0163 18.0069 36.0163C18.4563 36.0163 18.8957 35.8833 19.2696 35.6341C19.6436 35.3849 19.9354 35.0307 20.1085 34.6159L21.2155 32.0689C23.1618 27.5631 26.7263 23.9505 31.2055 21.9438L34.6166 20.4228C35.0297 20.2316 35.3795 19.9262 35.6246 19.5427C35.8697 19.1592 36 18.7135 36 18.2583C36 17.8031 35.8697 17.3574 35.6246 16.9738C35.3795 16.5903 35.0297 16.2849 34.6166 16.0938L31.3901 14.6537C26.7991 12.5879 23.1752 8.84004 21.265 4.18216L20.1265 1.43714C19.9575 1.01303 19.6652 0.649364 19.2873 0.39316C18.9095 0.136956 18.4635 0 18.0069 0C17.5504 0 17.1044 0.136956 16.7265 0.39316Z" fill="#6F3FFF"/>
</svg>
