<svg width="36" height="36" viewBox="0 0 36 36" fill="none" xmlns="http://www.w3.org/2000/svg">
<rect width="36" height="36" rx="13.5" fill="#6F3FFF"/>
<path d="M20.1764 16.875H16.4994C16.2721 16.875 16.0879 17.0592 16.0879 17.2865V35.5885C16.0879 35.8158 16.2721 36 16.4994 36H20.1764C20.4037 36 20.5879 35.8158 20.5879 35.5885V17.2865C20.5879 17.0592 20.4037 16.875 20.1764 16.875Z" fill="white"/>
<path d="M18.0195 5.72329C17.9251 5.78734 17.852 5.87826 17.8097 5.98428L17.5251 6.67167C17.0468 7.83549 16.1405 8.77163 14.9927 9.28731L14.185 9.64731C14.0814 9.69497 13.9936 9.77132 13.9321 9.86733C13.8706 9.96334 13.8379 10.075 13.8379 10.189C13.8379 10.303 13.8706 10.4147 13.9321 10.5107C13.9936 10.6067 14.0814 10.683 14.185 10.7307L15.04 11.1109C16.1596 11.6131 17.0503 12.5167 17.5364 13.6433L17.8142 14.279C17.8575 14.3827 17.9305 14.4712 18.024 14.5335C18.1174 14.5958 18.2273 14.6291 18.3396 14.6291C18.452 14.6291 18.5618 14.5958 18.6553 14.5335C18.7488 14.4712 18.8218 14.3827 18.865 14.279L19.1418 13.6422C19.6283 12.5158 20.5195 11.6126 21.6393 11.1109L22.492 10.7307C22.5953 10.6829 22.6828 10.6066 22.744 10.5107C22.8053 10.4148 22.8379 10.3034 22.8379 10.1896C22.8379 10.0758 22.8053 9.96435 22.744 9.86846C22.6828 9.77257 22.5953 9.69623 22.492 9.64844L21.6854 9.28844C20.5377 8.77198 19.6317 7.83501 19.1541 6.67054L18.8695 5.98428C18.8273 5.87826 18.7542 5.78734 18.6597 5.72329C18.5653 5.65924 18.4538 5.625 18.3396 5.625C18.2255 5.625 18.114 5.65924 18.0195 5.72329Z" fill="white"/>
</svg>
